<svg width="52" height="52" viewBox="0 0 52 52" fill="none" xmlns="http://www.w3.org/2000/svg">
<path d="M26.0043 50.992C12.4523 50.992 1 39.6821 1 26.2903C1 19.5201 3.61592 13.161 8.36657 8.37633C13.1872 3.52171 19.5564 0.906346 26.3543 1.00256C38.5853 1.1775 49.0839 10.5893 50.7637 22.9052C51.7173 29.8416 49.6526 36.8742 45.1032 42.21C40.3525 47.7993 33.3884 50.992 26.0043 50.992ZM25.9956 2.90067C19.8451 2.90067 14.0533 5.31486 9.67015 9.73212C5.2782 14.1581 2.85476 20.0362 2.85476 26.2991C2.85476 38.6586 13.4497 49.1026 25.9956 49.1026C32.846 49.1026 39.2939 46.1374 43.7034 40.9766C47.9028 36.052 49.8013 29.5704 48.9264 23.1763C47.3691 11.7789 37.6491 3.06687 26.3281 2.90067C26.2231 2.90067 26.1093 2.90067 25.9956 2.90067Z" fill="#0900BF"/>
<path fill-rule="evenodd" clip-rule="evenodd" d="M8.01178 8.02402C12.9271 3.07407 19.4265 0.404457 26.3614 0.502613C38.8451 0.681171 49.5465 10.2822 51.2591 22.8374C52.2321 29.9151 50.1254 37.0901 45.4842 42.5338C40.6373 48.2363 33.5333 51.492 26.0043 51.492C12.182 51.492 0.5 39.964 0.5 26.2903C0.5 19.3886 3.16775 12.9027 8.01178 8.02402ZM45.1032 42.21C49.6526 36.8742 51.7173 29.8416 50.7637 22.9052C49.0839 10.5893 38.5853 1.1775 26.3543 1.00256C19.5564 0.906346 13.1872 3.52171 8.36657 8.37633C3.61592 13.161 1 19.5201 1 26.2903C1 39.6821 12.4523 50.992 26.0043 50.992C33.3884 50.992 40.3525 47.7993 45.1032 42.21ZM48.4311 23.244C46.9066 12.0873 37.3912 3.56498 26.3244 3.40067H25.9956C19.9793 3.40067 14.3151 5.76097 10.0251 10.0843L9.67015 9.73212C14.0533 5.31486 19.8451 2.90067 25.9956 2.90067H26.3281C37.6491 3.06687 47.3691 11.7789 48.9264 23.1763C49.8013 29.5704 47.9028 36.052 43.7034 40.9766C39.2939 46.1374 32.846 49.1026 25.9956 49.1026C13.4497 49.1026 2.85476 38.6586 2.85476 26.2991C2.85476 20.0362 5.2782 14.1581 9.67015 9.73212L10.0251 10.0843C5.7262 14.4165 3.35476 20.1679 3.35476 26.2991C3.35476 38.3757 13.7189 48.6026 25.9956 48.6026C32.7008 48.6026 39.0094 45.7006 43.3232 40.6518C47.4301 35.8355 49.2866 29.4967 48.4311 23.244Z" fill="#0900BF"/>
<path d="M50.7725 22.9132C49.084 10.5973 38.5941 1.1855 26.3631 1.01056C26.2669 1.01056 26.1794 1.01056 26.0832 1.01056V2.89993C26.1707 2.89993 26.2494 2.89993 26.3369 2.89993C37.658 3.05737 47.378 11.7782 48.9353 23.1756C49.8102 29.561 47.9029 36.0513 43.7122 40.9759C39.329 46.1191 32.9073 49.0757 26.0832 49.1019V51C33.441 50.9825 40.3789 47.7811 45.112 42.2267C49.6614 36.8823 51.7262 29.8409 50.7725 22.9132Z" fill="#0900BF"/>
<path fill-rule="evenodd" clip-rule="evenodd" d="M26.5832 1.01471C38.7197 1.29859 49.0941 10.6713 50.7725 22.9132C51.7262 29.8409 49.6614 36.8823 45.112 42.2267C40.4862 47.6551 33.7546 50.8361 26.5832 50.9939C26.4168 50.9976 26.2501 50.9996 26.0832 51V49.1019C32.9073 49.0757 39.329 46.1191 43.7122 40.9759C47.9029 36.0513 49.8102 29.561 48.9353 23.1756C47.378 11.7782 37.658 3.05737 26.3369 2.89993H26.0832V1.01056H26.3631C26.4366 1.01161 26.5099 1.01299 26.5832 1.01471ZM26.3334 3.39993C37.3997 3.55558 46.9154 12.0861 48.4399 23.2433C49.2953 29.4868 47.4305 35.8348 43.3316 40.6516C39.0443 45.6824 32.7615 48.5762 26.0813 48.6019L25.5832 48.6038V51.5012L26.0844 51.5C33.587 51.4822 40.6639 48.2175 45.4926 42.551C50.1338 37.0987 52.241 29.9147 51.2679 22.8453C49.5466 10.2906 38.8544 0.689173 26.3703 0.51061L25.5832 0.510559V3.39993H26.3334Z" fill="#0900BF"/>
<path d="M49.1184 26.1416C49.1359 31.5298 47.2549 36.813 43.7116 40.9679C39.3109 46.1287 32.8542 49.0939 26.0038 49.0939C13.4579 49.0939 2.86297 38.6499 2.86297 26.2903C2.86297 26.2379 2.87173 26.1941 2.87173 26.1416H1.01695C1.01695 26.1941 1.00821 26.2379 1.00821 26.2903C1.00821 39.6821 12.4605 50.992 26.0126 50.992C33.3966 50.992 40.3607 47.7906 45.1201 42.2187C48.9609 37.714 51.0256 31.9934 50.9994 26.1416H49.1184Z" fill="#0900BF"/>
<path fill-rule="evenodd" clip-rule="evenodd" d="M48.6168 25.6416H51.4972L51.4994 26.1394C51.5262 32.1099 49.4196 37.9466 45.5006 42.5431C40.6456 48.227 33.5419 51.492 26.0126 51.492C12.1902 51.492 0.508209 39.964 0.508209 26.2903C0.508209 26.2409 0.512203 26.1973 0.514301 26.1744C0.514418 26.1731 0.514529 26.1719 0.514633 26.1707L0.516694 26.1464C0.516901 26.1433 0.516945 26.1418 0.516953 26.1415V25.6416H3.37173V26.1416C3.37173 26.1911 3.36773 26.2348 3.36562 26.2577C3.36551 26.259 3.3654 26.2602 3.36529 26.2613L3.36323 26.2857C3.363 26.2892 3.36297 26.2906 3.36297 26.2906C3.36297 26.2906 3.36297 26.2908 3.36297 26.2906C3.36297 38.3672 13.7271 48.5939 26.0038 48.5939C32.7093 48.5939 39.0264 45.6917 43.3311 40.6435L43.7116 40.9679C39.3109 46.1287 32.8542 49.0939 26.0038 49.0939C13.5769 49.0939 3.06421 38.8472 2.86583 26.6416C2.86392 26.5247 2.86297 26.4076 2.86297 26.2903C2.86297 26.2641 2.86516 26.2401 2.86735 26.216C2.86954 26.1919 2.87173 26.1679 2.87173 26.1416H1.01695C1.01695 26.1679 1.01477 26.1919 1.01258 26.216C1.0104 26.2401 1.00821 26.2641 1.00821 26.2903C1.00821 39.6821 12.4605 50.992 26.0126 50.992C33.3966 50.992 40.3607 47.7906 45.1201 42.2187C48.8514 37.8424 50.9065 32.3185 50.9966 26.6416C50.998 26.5485 50.999 26.4553 50.9994 26.3621C50.9997 26.2886 50.9997 26.2151 50.9994 26.1416H49.1184C49.1186 26.1913 49.1186 26.241 49.1184 26.2907C49.1011 31.6272 47.2222 36.8514 43.7116 40.9679L43.3311 40.6435C46.7952 36.5816 48.6355 31.4147 48.6184 26.1433L48.6168 25.6416Z" fill="#0900BF"/>
<path d="M11.7789 31.4249V20.4911H14.316V31.4249H11.7789Z" fill="#0900BF"/>
<path d="M33.0649 20.5447C33.756 20.5534 34.3422 21.087 34.4297 21.7693C34.5434 22.6003 33.896 23.3438 33.0386 23.3438C32.2687 23.3438 31.6388 22.714 31.6388 21.9617C31.6388 21.1657 32.2862 20.5272 33.0649 20.5447Z" fill="#0900BF"/>
<path d="M31.7876 31.4337V24.506H34.316V31.4337H31.7876Z" fill="#0900BF"/>
<path d="M22.5137 23.9812V25.0046H24.6309V27.1738H22.5137V31.4511H19.959V23.9374C19.959 21.8294 21.2888 20.4561 23.3711 20.4561C23.9048 20.4561 24.421 20.5523 24.6309 20.6485V22.7828C24.4997 22.7478 24.246 22.6866 23.8348 22.6866C23.2573 22.6866 22.5137 22.9403 22.5137 23.9812Z" fill="#0900BF"/>
<path d="M28.3846 23.5885H30.2568C30.2568 23.5885 30.2656 23.5885 30.2656 23.5972V25.8278C30.2656 25.8278 30.2656 25.8365 30.2568 25.8365H28.3846C28.3846 25.8365 28.3758 25.8365 28.3758 25.8452V28.2157C28.3758 29.0379 28.7608 29.3003 29.4782 29.3003C29.7756 29.3003 30.1081 29.2654 30.2481 29.2304C30.2481 29.2304 30.2568 29.2304 30.2568 29.2391V31.3209V31.3297C30.0293 31.4259 29.5744 31.5571 28.8308 31.5571C27.0022 31.5571 25.8561 30.4725 25.8561 28.6618V25.4954C25.8561 25.4954 25.8561 22.6351 25.8561 21.8041V20.5358C25.8561 20.5358 25.8561 20.527 25.8649 20.527H28.3671C28.3671 20.527 28.3758 20.527 28.3758 20.5358L28.3846 23.5885C28.3758 23.5885 28.3846 23.5885 28.3846 23.5885Z" fill="#0900BF"/>
<path d="M38.3492 23.7104H40.204C40.2128 23.7104 40.2215 23.7191 40.2215 23.7279V25.9409C40.2215 25.9496 40.2128 25.9584 40.204 25.9584H38.3492C38.3405 25.9584 38.3318 25.9671 38.3318 25.9759V28.2064C38.3318 29.0286 38.7167 29.291 39.4341 29.291C39.7228 29.291 40.0553 29.256 40.1953 29.221C40.204 29.221 40.2128 29.2298 40.2128 29.2385V31.3028C40.2128 31.3116 40.2128 31.3116 40.204 31.3203C39.9766 31.4166 39.5216 31.5478 38.7867 31.5478C36.9582 31.5478 35.8121 30.4631 35.8121 28.6525V25.4861C35.8121 25.4861 35.8121 22.6258 35.8121 21.7948V20.5352C35.8121 20.5265 35.8208 20.5177 35.8296 20.5177H38.3143C38.323 20.5177 38.3318 20.5265 38.3318 20.5352V23.7104C38.3405 23.7104 38.3405 23.7104 38.3492 23.7104Z" fill="#0900BF"/>
<path d="M18.4368 24.5935H15.9084V31.4336H18.4368V24.5935Z" fill="#0900BF"/>
<path d="M17.1945 20.5447C17.8857 20.5534 18.4719 21.087 18.5594 21.7693C18.6731 22.6003 18.0257 23.3438 17.1683 23.3438C16.3984 23.3438 15.7685 22.714 15.7685 21.9617C15.7685 21.1657 16.4159 20.5272 17.1945 20.5447Z" fill="#0900BF"/>
</svg>
